<?xml version="1.0" encoding="UTF-8" standalone="no"?>
<!-- Created with Inkscape (http://www.inkscape.org/) -->

<svg
   version="1.1"
   id="svg1"
   width="1024"
   height="1024"
   viewBox="0 0 1024 1024"
   sodipodi:docname="54.svg"
   inkscape:export-filename="53.svg"
   inkscape:export-xdpi="96"
   inkscape:export-ydpi="96"
   xml:space="preserve"
   xmlns:inkscape="http://www.inkscape.org/namespaces/inkscape"
   xmlns:sodipodi="http://sodipodi.sourceforge.net/DTD/sodipodi-0.dtd"
   xmlns="http://www.w3.org/2000/svg"
   xmlns:svg="http://www.w3.org/2000/svg"><defs
     id="defs1" /><sodipodi:namedview
     id="namedview1"
     pagecolor="#ffffff"
     bordercolor="#000000"
     borderopacity="0.25"
     inkscape:showpageshadow="2"
     inkscape:pageopacity="0.0"
     inkscape:pagecheckerboard="0"
     inkscape:deskcolor="#d1d1d1" /><g
     inkscape:groupmode="layer"
     inkscape:label="Image"
     id="g1"><path
       style="fill:#fafafa;fill-opacity:1"
       d="m 231.30212,375.28537 53.5199,-34.63694 -21.41907,35.48397 z"
       id="path2"
       sodipodi:nodetypes="cccc" /><path
       style="fill:#000000;stroke-width:1.10627"
       d="M 514.06925,1041.1123 H -66.102319 V 488.1378 -64.836754 H 514.06925 1094.2408 V 488.1378 1041.1123 Z M 512.9361,928.61283 c 14.0227,0.0809 26.61708,-0.13948 27.98751,-0.48972 1.96156,-0.50133 11.18317,-16.76959 43.34289,-76.46317 32.35004,-60.04679 40.85121,-76.67088 40.85121,-79.88458 0,-2.60459 -3.49332,-12.25252 -9.75257,-26.93482 -5.36391,-12.58212 -15.85148,-37.67283 -23.3057,-55.75713 -7.45422,-18.08431 -19.07636,-47.00206 -25.82695,-64.2617 -6.7506,-17.25962 -15.33636,-39.88637 -19.07946,-50.28164 -3.74311,-10.39527 -9.17094,-25.9381 -12.06183,-34.53964 -2.8909,-8.60152 -6.81623,-21.48086 -8.72293,-28.62074 -1.90671,-7.13989 -3.73816,-16.9452 -4.0699,-21.78958 -0.52022,-7.59699 -0.26093,-9.48174 1.88598,-13.70876 1.369,-2.69545 5.66867,-7.73569 9.5548,-11.20058 3.88615,-3.46487 10.61113,-8.50509 14.94442,-11.20049 4.3333,-2.6954 11.44813,-6.77424 15.81075,-9.0641 4.36261,-2.28985 47.19559,-28.92284 95.18439,-59.1844 47.98881,-30.26157 90.46869,-57.19794 94.39975,-59.85863 5.41814,-3.66718 7.06308,-5.38401 6.79889,-7.09603 -0.21093,-1.367 -1.50364,-2.55092 -3.27502,-2.99942 -1.60959,-0.40755 -56.55977,-1.10411 -122.1115,-1.54792 -94.66101,-0.64088 -119.8924,-0.52763 -122.62302,0.5504 -1.89091,0.74654 -4.17885,2.72278 -5.08431,4.39166 -0.90546,1.66888 -1.64629,4.01928 -1.64629,5.22311 0,1.20384 1.14731,2.90521 2.54958,3.78083 2.07553,1.29603 11.39872,1.77435 50.14178,2.57251 38.92396,0.80189 48.35248,1.28782 51.7664,2.66795 2.42149,0.97892 5.41432,3.47359 7.12764,5.94123 1.6244,2.33955 3.23856,5.92829 3.58703,7.97497 0.50675,2.97644 0.0387,4.39504 -2.33852,7.08777 -1.63463,1.85159 -39.35231,29.1517 -83.81705,60.66689 -61.41535,43.52923 -81.18669,58.0866 -82.26675,60.57187 -0.80952,1.86273 -1.10791,4.76724 -0.69292,6.74491 0.40087,1.91035 18.81122,60.93573 40.91191,131.16748 22.10069,70.23176 40.49467,129.55141 40.87551,131.82144 0.536,3.19488 0.17988,4.73106 -1.57632,6.79967 -2.2505,2.65082 -2.46347,2.67759 -26.44986,3.32409 -24.1811,0.65175 -24.1811,0.65175 -41.74488,6.50604 -9.66009,3.21985 -20.87826,7.62165 -24.92926,9.78175 -4.051,2.16013 -11.87065,7.71292 -17.377,12.33953 -5.50636,4.62662 -14.70308,14.0259 -20.43718,20.88731 -5.73409,6.86139 -17.92287,21.53389 -27.08619,32.60555 -9.16331,11.07165 -17.47293,20.42741 -18.46581,20.79055 -0.99288,0.36314 -2.95929,0.66026 -4.3698,0.66026 -1.41052,0 -3.45533,-0.93814 -4.54404,-2.08476 -1.0887,-1.14659 -10.98314,-21.19462 -21.98764,-44.55116 -20.0082,-42.46643 -20.0082,-42.46643 -19.987,-51.10666 0.0129,-5.28336 0.82301,-11.08183 2.085,-14.92469 1.13512,-3.45646 3.57948,-7.92978 5.43194,-9.94072 1.85247,-2.01093 11.87423,-9.14618 22.27056,-15.8561 10.39634,-6.70994 22.9845,-15.06802 27.97367,-18.5735 4.98917,-3.50551 12.13071,-8.81806 15.8701,-11.8057 3.73938,-2.98762 9.76959,-8.13871 13.40045,-11.44683 3.63086,-3.30813 7.36062,-7.38777 8.28838,-9.06587 0.92774,-1.67811 1.97588,-6.33748 2.32918,-10.35417 0.40681,-4.62483 0.11423,-8.82837 -0.79777,-11.46224 -0.7921,-2.28754 -6.74423,-11.58227 -13.22698,-20.65495 -6.48276,-9.07268 -13.16798,-17.42962 -14.85605,-18.57098 -1.68809,-1.14136 -7.40354,-3.40942 -12.701,-5.04012 -6.15613,-1.89505 -12.08513,-2.96121 -16.43064,-2.95464 -4.96172,0.007 -11.698,1.46872 -24.92925,5.40752 -9.97169,2.96847 -19.4577,5.90296 -21.08003,6.5211 -1.62232,0.61814 -4.68182,3.05911 -6.79888,5.42438 -2.11707,2.36526 -6.78124,9.7047 -10.36482,16.30986 -4.55022,8.38687 -6.51044,13.22433 -6.4985,16.03712 0.01,2.21525 1.53145,13.26196 3.38234,24.54826 1.8509,11.28629 3.37296,22.06033 3.38236,23.94231 0.01,1.88196 -0.29242,4.19052 -0.67072,5.13013 -0.37829,0.93961 -1.6866,1.70837 -2.90737,1.70837 -1.22075,0 -3.20045,-0.50036 -4.39936,-1.1119 -1.19887,-0.61154 -10.77881,-11.67677 -21.28872,-24.58937 -10.50991,-12.91261 -20.93352,-25.00436 -23.16356,-26.87059 -2.23004,-1.86622 -6.76679,-4.12968 -10.08163,-5.0299 -3.31484,-0.90022 -8.32161,-2.19615 -11.12615,-2.87983 -2.80454,-0.68369 -7.78215,-1.97152 -11.06134,-2.86186 -3.27921,-0.89036 -7.48142,-2.83723 -9.33825,-4.32641 -2.66287,-2.13563 -4.22609,-5.30296 -7.40004,-14.99365 -3.06349,-9.35342 -5.21953,-13.80189 -9.0326,-18.63663 -2.75474,-3.49282 -8.73316,-9.71039 -13.28538,-13.81683 -4.55221,-4.10644 -12.69087,-10.03253 -18.08588,-13.16907 -5.39501,-3.13656 -11.3494,-7.37487 -13.23197,-9.41849 -2.20757,-2.39642 -4.68328,-7.46571 -6.97285,-14.27771 -1.95251,-5.80911 -3.83146,-12.82612 -4.17546,-15.59335 -0.344,-2.76723 -0.29059,-6.73258 0.11867,-8.8119 0.40928,-2.07931 2.229,-5.16135 4.04384,-6.84898 1.81484,-1.68764 10.34154,-6.62173 18.94824,-10.96465 8.60668,-4.34291 34.00437,-19.42454 56.43931,-33.51471 34.99797,-21.98035 41.13376,-26.22721 43.20584,-29.90479 1.32829,-2.35745 4.81675,-14.24953 7.75213,-26.42686 3.29998,-13.68975 6.37559,-23.85596 8.05789,-26.63479 1.49644,-2.47182 5.50034,-6.84594 8.89756,-9.72025 4.52358,-3.82733 24.35514,-14.57299 74.09679,-40.14909 48.09786,-24.73091 69.08191,-36.07817 71.90122,-38.88102 2.18966,-2.17689 13.79489,-17.32334 25.7894,-33.65876 11.99452,-16.33543 23.55992,-31.92602 25.7009,-34.64573 2.14098,-2.71971 5.51181,-5.87881 7.49075,-7.02019 3.48096,-2.00769 8.18932,-2.09692 144.67493,-2.74178 77.59228,-0.36661 147.96074,-0.7529 156.37436,-0.85843 15.2975,-0.19186 15.2975,-0.19186 9.63176,-5.04987 -3.11616,-2.6719 -11.90563,-9.08978 -19.53216,-14.26197 -7.62654,-5.17219 -19.60958,-12.70289 -26.62897,-16.73489 -7.01941,-4.03201 -19.13649,-10.4182 -26.92689,-14.19153 -7.79039,-3.77334 -19.26351,-8.9218 -25.49582,-11.44101 -6.23231,-2.51922 -16.17568,-6.25523 -22.09637,-8.30226 -5.9207,-2.04702 -17.566,-5.61948 -25.87846,-7.9388 -8.31247,-2.31932 -21.06037,-5.41096 -28.32869,-6.87033 -7.26832,-1.45935 -18.05934,-3.37676 -23.98004,-4.2609 -5.9207,-0.88414 -16.62895,-2.22758 -23.7961,-2.98544 -7.16716,-0.75785 -25.77911,-1.3779 -41.35989,-1.3779 -15.58078,0 -34.19273,0.62371 -41.35989,1.38605 -7.16716,0.76233 -20.29225,2.56393 -29.16689,4.00357 -8.87463,1.43964 -23.91716,4.51614 -33.42786,6.83668 -9.51069,2.32053 -22.90124,6.01786 -29.75678,8.21628 -6.85555,2.19843 -18.0737,6.16352 -24.92924,8.81131 -6.85555,2.6478 -19.58658,8.20163 -28.29121,12.34185 -8.70462,4.14023 -22.21741,11.1697 -30.02841,15.62105 -7.81101,4.45135 -18.729,11.18308 -24.2622,14.95941 -5.5332,3.77632 -15.44174,10.92901 -22.01897,15.89489 -6.57723,4.96586 -19.06096,15.57502 -27.7416,23.57589 -8.68065,8.00088 -20.38266,19.62515 -26.00448,25.8317 -5.62181,6.20657 -14.60726,16.90586 -19.96765,23.77621 -5.36038,6.87037 -13.76072,18.57471 -18.66739,26.00966 -4.90667,7.43496 -13.93686,23.23836 -20.06707,35.11868 -6.13022,11.88031 -13.72636,28.24665 -16.88032,36.36964 -3.15395,8.12299 -7.46714,20.51632 -9.58487,27.54073 -2.1177,7.0244 -5.18053,18.43635 -6.80626,25.35989 -1.62574,6.92352 -3.95373,18.83084 -5.17331,26.46068 -1.219577,7.62986 -2.811662,20.67664 -3.537946,28.99287 -0.823426,9.4284 -1.065542,24.6748 -0.643129,40.50106 0.372561,13.95937 1.419435,30.72681 2.326357,37.26098 0.906943,6.53417 2.476318,16.49743 3.487518,22.14058 1.0112,5.64315 3.585,17.06446 5.71954,25.38067 2.13455,8.31622 6.25868,21.92458 9.16473,30.2408 2.90606,8.31621 8.31278,21.92457 12.01494,30.24079 3.70215,8.31622 9.93871,20.95256 13.85903,28.08074 3.92031,7.12819 10.06707,17.57747 13.65942,23.22062 3.59237,5.64315 9.90558,14.87739 14.02935,20.52054 4.12377,5.64314 11.35859,14.87738 16.07739,20.52053 4.71879,5.64315 14.20872,16.09243 21.08873,23.22062 6.88003,7.12819 18.25432,17.82046 25.27622,23.76062 7.02188,5.94016 17.9313,14.64858 24.24314,19.35203 6.31185,4.70347 18.61491,13.02482 27.34014,18.49189 8.72525,5.46708 21.98307,13.07666 29.46184,16.91018 7.47878,3.83354 18.95189,9.30695 25.49583,12.16316 6.54392,2.85619 17.50713,7.25665 24.36266,9.77879 6.85555,2.52213 17.35414,6.07538 23.33021,7.89609 5.97607,1.82072 16.93927,4.77103 24.36268,6.55625 7.42339,1.78523 20.38096,4.44348 28.79458,5.90728 8.41363,1.46377 20.90657,3.19188 27.76211,3.84023 6.85555,0.64835 13.99438,1.34629 15.86408,1.551 1.86969,0.20469 14.87256,0.43836 28.89526,0.51925 z m 155.95376,-27.37012 c 4.28233,-1.53229 13.45644,-5.22533 20.38689,-8.20673 6.93045,-2.9814 19.16845,-8.82376 27.19555,-12.98304 8.02709,-4.15927 21.9371,-12.21511 30.91112,-17.90186 8.97403,-5.68674 22.74177,-15.21842 30.59498,-21.1815 7.85323,-5.96308 22.97404,-19.14037 33.60181,-29.28286 10.62778,-10.14248 24.56838,-24.73301 30.97912,-32.42337 6.41074,-7.69036 15.89433,-20.0837 21.07464,-27.54073 5.18032,-7.45703 12.60386,-18.86713 16.49674,-25.35579 3.89288,-6.48865 9.98828,-17.66695 13.54532,-24.84065 3.55704,-7.17371 9.34324,-20.16395 12.85824,-28.86722 3.515,-8.70327 8.18286,-21.75803 10.37305,-29.01059 2.19017,-7.25255 5.22294,-18.35718 6.73949,-24.67694 1.51655,-6.31977 3.54407,-15.86461 4.50559,-21.21074 0.96155,-5.34615 2.48344,-16.28144 3.382,-24.30065 0.89855,-8.01921 1.96388,-21.38456 2.36739,-29.70078 0.40351,-8.31622 0.16319,-23.62562 -0.53405,-34.0209 -0.69725,-10.39527 -2.0246,-24.24663 -2.94968,-30.78081 -0.92509,-6.53416 -2.71693,-16.98344 -3.98185,-23.2206 -1.26492,-6.23717 -3.5269,-15.95743 -5.02661,-21.60058 -1.4997,-5.64315 -3.63707,-12.78647 -4.7497,-15.87407 -2.02297,-5.61382 129.6402,70.65202 3.621,314.41211 -69.31056,134.06804 -258.01868,168.36275 -258.42974,169.42427 -0.66658,1.72138 0.0944,1.62883 7.0387,-0.85597 z M 304.89013,467.29087 c 7.44311,-0.28799 7.99241,-0.49412 11.43622,-4.29126 1.98966,-2.19381 5.31261,-7.17167 7.38432,-11.06194 2.69713,-5.06468 3.41924,-7.40442 2.54296,-8.23961 -0.87627,-0.83519 -2.62117,-0.50123 -6.14485,1.17607 -2.70658,1.28838 -10.01705,5.59611 -16.24548,9.57274 -6.22842,3.97662 -11.48975,8.08308 -11.69182,9.12542 -0.22593,1.16539 0.64677,2.30452 2.26629,2.95815 1.44854,0.58463 6.15211,0.92681 10.45236,0.76043 z"
       id="path5"
       sodipodi:nodetypes="cccccccccsssssssssssssssssssssssssssssssssssssssssssssssssssssssssscsssscscsssssssssssssssssssssssssssssssssssssssssssssssssssssssssssssssssssssssssssssssssssssssssssssssssssssssssssssssssssss" /></g></svg>
